<?xml version="1.0" encoding="UTF-8" standalone="no" ?>
<!DOCTYPE svg PUBLIC "-//W3C//DTD SVG 1.1//EN" "http://www.w3.org/Graphics/SVG/1.1/DTD/svg11.dtd">
<svg xmlns="http://www.w3.org/2000/svg" xmlns:xlink="http://www.w3.org/1999/xlink" version="1.1" width="1080" height="1080" viewBox="0 0 1080 1080" xml:space="preserve">
<desc>Created with Fabric.js 5.2.4</desc>
<defs>
</defs>
<rect x="0" y="0" width="100%" height="100%" fill="transparent"></rect>
<g transform="matrix(1 0 0 1 540 540)" id="f58223a6-2293-4e60-bd79-8e0a1a62bc5d"  >
<rect style="stroke: none; stroke-width: 1; stroke-dasharray: none; stroke-linecap: butt; stroke-dashoffset: 0; stroke-linejoin: miter; stroke-miterlimit: 4; fill: rgb(255,255,255); fill-rule: nonzero; opacity: 1; visibility: hidden;" vector-effect="non-scaling-stroke"  x="-540" y="-540" rx="0" ry="0" width="1080" height="1080" />
</g>
<g transform="matrix(1 0 0 1 540 540)" id="cf07a138-354b-497f-b90b-80a04cb5d77b"  >
</g>
<g transform="matrix(1 0 0 1 540 540)"  >
<g style="" vector-effect="non-scaling-stroke"   >
		<g transform="matrix(11.11 0 0 11.11 -206.25 129.36)" id="Path_24"  >
<path style="stroke: none; stroke-width: 1; stroke-dasharray: none; stroke-linecap: butt; stroke-dashoffset: 0; stroke-linejoin: miter; stroke-miterlimit: 4; fill: rgb(0,0,0); fill-rule: nonzero; opacity: 1;" vector-effect="non-scaling-stroke"  transform=" translate(-565.45, -442.65)" d="M 565.452 434.949 C 561.1994074263029 434.949 557.7520000000001 438.39640742630297 557.7520000000001 442.64900000000006 C 557.7520000000001 446.90159257369714 561.199407426303 450.34900000000005 565.4520000000001 450.349 C 569.7045925736971 450.349 573.152 446.9015925736971 573.152 442.649 C 573.1453922877504 438.3991474394386 569.7018525605614 434.9556077122496 565.452 434.949 Z M 565.452 445.41200000000003 C 564.3355932918611 445.4124044952107 563.3288902731492 444.7402086019831 562.9013796143342 443.7088993669845 C 562.4738689555194 442.6775901319859 562.7097559423348 441.4903009438742 563.4990316985156 440.7007391145669 C 564.2883074546963 439.91117728525955 565.4755110830665 439.67486005876 566.506975173575 440.1019969590452 C 567.5384392640836 440.5291338593304 568.2109999267219 441.5355932185831 568.211 442.65200000000004 C 568.2087984305809 444.17500281090463 566.9750019130877 445.40924651814686 565.452 445.412 Z" stroke-linecap="round" />
</g>
		<g transform="matrix(11.11 0 0 11.11 0 0)" id="Path_25"  >
<path style="stroke: none; stroke-width: 1; stroke-dasharray: none; stroke-linecap: butt; stroke-dashoffset: 0; stroke-linejoin: miter; stroke-miterlimit: 4; fill: rgb(0,0,0); fill-rule: nonzero; opacity: 1;" vector-effect="non-scaling-stroke"  transform=" translate(-584.01, -431.01)" d="M 617.427 433.58 C 614.427 428.44 602.479 408.018 600.648 405.77299999999997 C 598.5822420497494 403.31305312701124 595.5339066541251 401.893198021301 592.321634538554 401.8947415480548 C 589.1093624229828 401.89628507480865 586.0623929419779 403.31906903144164 583.999 405.78099999999995 C 581.9356070580221 403.31906903144164 578.8886375770172 401.89628507480865 575.676365461446 401.8947415480548 C 572.464093345875 401.893198021301 569.4157579502506 403.31305312701124 567.35 405.77299999999997 C 565.518 408.01899999999995 553.5500000000001 428.47299999999996 550.563 433.59299999999996 C 545.6633743788873 441.6646049421046 548.0796751178204 452.1697973205887 556.0134556286214 457.289588759203 C 563.9472361394222 462.40938019781737 574.514917082728 460.28295228922934 579.851 452.49299999999994 L 588.151 452.49299999999994 C 593.4770461842544 460.317598967221 604.0734462042209 462.46313728154 612.0238134634112 457.32672049562365 C 619.9741807226015 452.19030370970734 622.373818922433 441.6485408328795 617.43 433.57699999999994 Z M 564.884 419 C 567.6391868717293 416.6936425757216 571.4508455316507 416.1169368074206 574.765 417.505 C 578.278628065002 418.8045130371309 580.8409845630414 421.86800162722824 581.499 425.556 L 581.499 435.80199999999996 C 578.0962548432799 427.75366308588576 569.2435680992817 423.48684880353585 560.828 425.83899999999994 C 562.221 423.477 563.6 421.146 564.884 419 Z M 590.206 430.31 C 588.6319087828298 431.88371660031714 587.373601016352 433.74419269097405 586.499 435.791 L 586.499 425.557 C 587.155932710775 421.8685914413263 589.7181254984398 418.8044630696826 593.232 417.505 C 596.5458749620309 416.1173467601952 600.3570278925599 416.6940343746831 603.112 419 C 604.396 421.148 605.7769999999999 423.48 607.169 425.843 C 605.664165869774 425.42247122512657 604.1094809074474 425.2068604374045 602.547 425.202 L 602.547 425.202 C 597.916113900232 425.1885464612345 593.4722940519036 427.02822522349925 590.206 430.311 Z M 592.333 406.838 C 594.0590453948586 406.8234167736209 595.7021789293095 407.577191457021 596.817 408.89500000000004 C 597.141 409.295 597.851 410.37800000000004 598.823 411.937 C 596.3214597316697 411.6411131379745 593.7855932870941 411.970981943773 591.443 412.897 C 589.6275543479713 413.60238652309243 587.9538776428075 414.628745644049 586.502 415.92699999999996 L 586.502 412.63599999999997 C 586.502 412.42999999999995 586.483 412.227 586.471 412.025 C 586.782972896882 409.03696198074397 589.3292171414736 406.7843480857505 592.333 406.839 Z M 575.6659999999999 406.838 C 578.670129016896 406.78339585662894 581.2165093831164 409.0365645634842 581.5279999999999 412.02500000000003 C 581.516 412.225 581.497 412.425 581.497 412.63700000000006 L 581.497 415.92600000000004 C 580.04465263392 414.628627033573 578.3710807348848 413.60267089469875 576.5559999999999 412.89700000000005 C 574.2126877587722 411.9710585363966 571.6761952043279 411.64119767859836 569.174 411.93700000000007 C 570.145 410.38000000000005 570.855 409.29600000000005 571.182 408.8950000000001 C 572.2970120089395 407.5775640604469 573.9401178306933 406.82416852754636 575.666 406.839 Z M 565.4519999999999 455.16 C 558.5434700643665 455.16 552.9429999999999 449.5595299356334 552.9429999999999 442.651 C 552.9429999999999 435.7424700643666 558.5434700643665 430.14200000000005 565.4519999999999 430.14200000000005 C 572.3605299356333 430.14200000000005 577.9609999999999 435.7424700643666 577.9609999999999 442.651 C 577.9532856108316 449.5564939576693 572.3574933189228 455.15273359087575 565.452 455.161 Z M 582.1919999999999 447.55100000000004 C 582.6621499812796 445.96003188293605 582.902249439941 444.30997950223355 582.9049999999999 442.65100000000007 C 582.9049999999999 442.1210000000001 582.8719999999998 441.59900000000005 582.8249999999998 441.08000000000004 L 585.1709999999998 441.08000000000004 C 585.1259999999999 441.60100000000006 585.0949999999998 442.122 585.0949999999998 442.65100000000007 C 585.0972557109177 444.3100156917468 585.337365376674 445.9601382193853 585.8079999999998 447.55100000000004 Z M 602.5469999999999 455.16100000000006 C 595.6384700643665 455.16100000000006 590.0379999999999 449.56052993563344 590.0379999999999 442.65200000000004 C 590.0379999999999 435.74347006436665 595.6384700643665 430.14300000000003 602.5469999999999 430.14300000000003 L 602.5469999999999 430.14300000000003 C 609.4555299356333 430.14300000000003 615.0559999999999 435.74347006436665 615.0559999999999 442.65200000000004 C 615.0559999999999 449.56052993563344 609.4555299356333 455.16100000000006 602.5469999999999 455.16100000000006 Z" stroke-linecap="round" />
</g>
		<g transform="matrix(11.11 0 0 11.11 205.92 129.37)" id="Path_26"  >
<path style="stroke: none; stroke-width: 1; stroke-dasharray: none; stroke-linecap: butt; stroke-dashoffset: 0; stroke-linejoin: miter; stroke-miterlimit: 4; fill: rgb(0,0,0); fill-rule: nonzero; opacity: 1;" vector-effect="non-scaling-stroke"  transform=" translate(-602.55, -442.65)" d="M 602.547 434.95 C 598.2944074263029 434.95 594.8470000000001 438.39740742630295 594.8470000000001 442.65000000000003 C 594.8470000000001 446.9025925736971 598.294407426303 450.35 602.5470000000001 450.34999999999997 C 606.7995925736972 450.34999999999997 610.2470000000001 446.90259257369706 610.2470000000001 442.65 C 610.2409414298268 438.3999194978394 606.7970805021606 434.95605857017324 602.547 434.95 Z M 602.547 445.412 C 601.0233766720247 445.41144776244 599.7886319555118 444.17595695854163 599.78900008053 442.6523335749587 C 599.7893682055479 441.12871019137566 601.0247097955804 439.89381618887586 602.5483332125231 439.8940002013466 C 604.0719566294658 439.8941842138173 605.3069998999207 441.1293765719454 605.307 442.65299999999996 C 605.3053456639891 444.176458242822 604.0704587422956 445.4108977417178 602.547 445.412 Z" stroke-linecap="round" />
</g>
</g>
</g>
</svg>