<?xml version="1.0" encoding="UTF-8" standalone="no" ?>
<!DOCTYPE svg PUBLIC "-//W3C//DTD SVG 1.1//EN" "http://www.w3.org/Graphics/SVG/1.1/DTD/svg11.dtd">
<svg xmlns="http://www.w3.org/2000/svg" xmlns:xlink="http://www.w3.org/1999/xlink" version="1.1" width="1080" height="1080" viewBox="0 0 1080 1080" xml:space="preserve">
<desc>Created with Fabric.js 5.2.4</desc>
<defs>
</defs>
<rect x="0" y="0" width="100%" height="100%" fill="transparent"></rect>
<g transform="matrix(1 0 0 1 540 540)" id="f58223a6-2293-4e60-bd79-8e0a1a62bc5d"  >
<rect style="stroke: none; stroke-width: 1; stroke-dasharray: none; stroke-linecap: butt; stroke-dashoffset: 0; stroke-linejoin: miter; stroke-miterlimit: 4; fill: rgb(255,255,255); fill-rule: nonzero; opacity: 1; visibility: hidden;" vector-effect="non-scaling-stroke"  x="-540" y="-540" rx="0" ry="0" width="1080" height="1080" />
</g>
<g transform="matrix(1 0 0 1 540 540)" id="cf07a138-354b-497f-b90b-80a04cb5d77b"  >
</g>
<g transform="matrix(13.79 0 0 13.79 540 540)" id="Path_1"  >
<path style="stroke: rgb(0,0,0); stroke-width: 0; stroke-dasharray: none; stroke-linecap: butt; stroke-dashoffset: 0; stroke-linejoin: miter; stroke-miterlimit: 4; fill: rgb(0,0,0); fill-rule: nonzero; opacity: 1;" vector-effect="non-scaling-stroke"  transform=" translate(-152, -143.41)" d="M 185.5 159.516 C 184.11928812542303 159.516 183 160.63528812542302 183 162.016 L 155.042 121.78699999999999 L 157.422 118.362 C 157.98083141783945 117.63122364197196 158.0931603636967 116.65257578562114 157.71443729277115 115.81418716775595 C 157.3357142218456 114.97579854989077 156.52713880113566 114.41314838518699 155.60939121378252 114.34938315230362 C 154.69164362642937 114.28561791942025 153.8130270814172 114.73104174640788 153.322 115.509 L 152 117.4 L 150.681 115.5 C 150.1899729185828 114.72204174640788 149.31135637357065 114.27661791942023 148.3936087862175 114.34038315230362 C 147.47586119886435 114.40414838518699 146.6672857781544 114.96679854989077 146.28856270722886 115.80518716775595 C 145.9098396363033 116.64357578562114 146.02216858216056 117.62222364197197 146.58100000000002 118.353 L 148.961 121.77799999999999 L 121 162.012 C 121 160.63128812542303 119.88071187457699 159.512 118.5 159.512 C 117.11928812542301 159.512 116 160.63128812542303 116 162.012 L 116 169.985 C 116.00034503082884 171.0776632778774 116.71025415010673 172.04351225076832 117.753 172.37 C 117.99428092034158 172.44643520624894 118.24590165323983 172.48522392512737 118.499 172.485 C 119.3177501480065 172.48509077103452 120.08465741767749 172.08426685464045 120.55199999999999 171.412 L 125.583 164.174 L 125.583 169.985 C 125.583 171.365711874577 126.70228812542301 172.485 128.083 172.485 L 175.92000000000002 172.485 C 177.300711874577 172.485 178.42000000000002 171.365711874577 178.42000000000002 169.985 L 178.42000000000002 164.175 L 183.45000000000002 171.412 C 184.074170669282 172.30623448034075 185.20596646596368 172.692706380514 186.24671207411262 172.36698731545818 C 187.2874576822616 172.0412682504023 187.9969922543972 171.07852064798817 188 169.988 L 188 162.016 C 188 160.63528812542302 186.88071187457697 159.516 185.5 159.516 Z M 155.685 167.489 L 148.312 167.489 L 148.312 154.728 C 148.3451441113487 152.71567198617547 149.98589905412422 151.10171861329144 151.9985 151.10171861329144 C 154.0111009458758 151.10171861329144 155.6518558886513 152.71567198617547 155.685 154.728 Z M 130.58 156.983 L 149.5 129.759 L 149.5 146.415 C 145.8331153699145 147.52229445221934 143.32184897085546 150.89758266165796 143.315 154.72799999999998 L 143.315 167.48899999999998 L 130.581 167.48899999999998 Z M 173.418 167.489 L 160.685 167.489 L 160.685 154.728 C 160.6778840745684 150.8970337007916 158.16567659031196 147.52157211737094 154.498 146.41500000000002 L 154.498 129.759 L 173.41899999999998 156.98399999999998 Z" stroke-linecap="round" />
</g>
</svg>