<?xml version="1.0" encoding="UTF-8" standalone="no" ?>
<!DOCTYPE svg PUBLIC "-//W3C//DTD SVG 1.1//EN" "http://www.w3.org/Graphics/SVG/1.1/DTD/svg11.dtd">
<svg xmlns="http://www.w3.org/2000/svg" xmlns:xlink="http://www.w3.org/1999/xlink" version="1.1" width="1080" height="1080" viewBox="0 0 1080 1080" xml:space="preserve">
<desc>Created with Fabric.js 5.2.4</desc>
<defs>
</defs>
<rect x="0" y="0" width="100%" height="100%" fill="transparent"></rect>
<g transform="matrix(1 0 0 1 540 540)" id="f58223a6-2293-4e60-bd79-8e0a1a62bc5d"  >
<rect style="stroke: none; stroke-width: 1; stroke-dasharray: none; stroke-linecap: butt; stroke-dashoffset: 0; stroke-linejoin: miter; stroke-miterlimit: 4; fill: rgb(255,255,255); fill-rule: nonzero; opacity: 1; visibility: hidden;" vector-effect="non-scaling-stroke"  x="-540" y="-540" rx="0" ry="0" width="1080" height="1080" />
</g>
<g transform="matrix(1 0 0 1 540 540)" id="cf07a138-354b-497f-b90b-80a04cb5d77b"  >
</g>
<g transform="matrix(1 0 0 1 540 540)"  >
<g style="" vector-effect="non-scaling-stroke"   >
		<g transform="matrix(11.11 0 0 11.11 -189.7 243.71)" id="Path_11"  >
<path style="stroke: none; stroke-width: 1; stroke-dasharray: none; stroke-linecap: butt; stroke-dashoffset: 0; stroke-linejoin: miter; stroke-miterlimit: 4; fill: rgb(0,0,0); fill-rule: nonzero; opacity: 1;" vector-effect="non-scaling-stroke"  transform=" translate(-278.93, -308.94)" d="M 266.836 295.325 C 265.9125436653325 295.2760839069512 265.0375117218279 295.740926701612 264.5610814483263 296.5335038780989 C 264.0846511748247 297.3260810545857 264.0846511748247 298.3169189454142 264.5610814483263 299.1094961219011 C 265.0375117218279 299.90207329838796 265.9125436653325 300.36691609304876 266.836 300.318 L 267.51800000000003 300.318 L 267.51800000000003 300.989 L 265.781 300.989 C 262.5896791182479 300.99340786085577 260.0038558724031 303.5796784035776 260 306.771 L 260 310.2 C 260.00385914090845 313.3919390051136 262.59105985095925 315.9782449544139 265.783 315.981 L 267.572 315.981 C 268.00848072095664 319.7227748635944 271.1758566398129 322.54595486452854 274.943 322.551 L 287.37 322.551 C 291.4684966347102 322.5465918630464 294.7900398398369 319.225496003806 294.795 315.127 L 294.795 300.318 L 295.476 300.318 C 296.80751718361694 300.2527104710556 297.85356226072025 299.15411692392564 297.85356226072025 297.82099999999997 C 297.85356226072025 296.4878830760743 296.80751718361694 295.38928952894435 295.476 295.32399999999996 Z M 265.781 310.986 C 265.34641755816483 310.9854505933108 264.9941012567436 310.63358139379494 264.993 310.199 L 264.993 306.771 C 264.9941012609281 306.3358663218342 265.3468652751181 305.9835494103238 265.782 305.983 L 267.518 305.983 L 267.518 310.983 Z M 289.801 315.126 C 289.79879636335784 316.46808069953096 288.71108149231674 317.55534831939156 287.36899999999997 317.55699999999996 L 274.942 317.55699999999996 C 273.6000810441141 317.55534704929295 272.51265295070704 316.46791895588586 272.511 315.126 L 272.511 300.318 L 289.8 300.318 Z" stroke-linecap="round" />
</g>
		<g transform="matrix(11.11 0 0 11.11 -241.87 -45.7)" id="Path_12"  >
<path style="stroke: none; stroke-width: 1; stroke-dasharray: none; stroke-linecap: butt; stroke-dashoffset: 0; stroke-linejoin: miter; stroke-miterlimit: 4; fill: rgb(0,0,0); fill-rule: nonzero; opacity: 1;" vector-effect="non-scaling-stroke"  transform=" translate(-274.23, -282.89)" d="M 274.229 291.2 C 275.609711874577 291.2 276.729 290.080711874577 276.729 288.7 L 276.729 277.2 C 276.774174732566 276.2787047532857 276.30837595476595 275.40738604769587 275.5171906074437 274.9332010265666 C 274.7260052601215 274.4590160054374 273.7379947398785 274.4590160054374 272.9468093925563 274.9332010265666 C 272.15562404523405 275.40738604769587 271.689825267434 276.2787047532857 271.735 277.2 L 271.735 288.7 C 271.7349960302826 290.0783721188721 272.8506318508396 291.19669190692036 274.229 291.2 Z" stroke-linecap="round" />
</g>
		<g transform="matrix(11.11 0 0 11.11 -68.49 -45.7)" id="Path_13"  >
<path style="stroke: none; stroke-width: 1; stroke-dasharray: none; stroke-linecap: butt; stroke-dashoffset: 0; stroke-linejoin: miter; stroke-miterlimit: 4; fill: rgb(0,0,0); fill-rule: nonzero; opacity: 1;" vector-effect="non-scaling-stroke"  transform=" translate(-289.84, -282.89)" d="M 289.833 291.2 C 291.21371187457703 291.2 292.333 290.080711874577 292.333 288.7 L 292.333 277.2 C 292.37817473256604 276.2787047532857 291.912375954766 275.40738604769587 291.12119060744374 274.9332010265666 C 290.33000526012154 274.4590160054374 289.34199473987854 274.4590160054374 288.55080939255635 274.9332010265666 C 287.7596240452341 275.40738604769587 287.29382526743404 276.2787047532857 287.33900000000006 277.2 L 287.33900000000006 288.7 C 287.33899603028266 290.0783721188721 288.45463185083963 291.19669190692036 289.833 291.2 Z" stroke-linecap="round" />
</g>
		<g transform="matrix(11.11 0 0 11.11 -155.18 -109.6)" id="Path_14"  >
<path style="stroke: none; stroke-width: 1; stroke-dasharray: none; stroke-linecap: butt; stroke-dashoffset: 0; stroke-linejoin: miter; stroke-miterlimit: 4; fill: rgb(0,0,0); fill-rule: nonzero; opacity: 1;" vector-effect="non-scaling-stroke"  transform=" translate(-282.03, -277.14)" d="M 282.031 285.449 C 283.411711874577 285.449 284.531 284.329711874577 284.531 282.949 L 284.531 271.449 C 284.576174732566 270.5277047532857 284.11037595476597 269.6563860476959 283.3191906074437 269.18220102656664 C 282.5280052601215 268.7080160054374 281.5399947398785 268.7080160054374 280.7488093925563 269.18220102656664 C 279.95762404523407 269.6563860476959 279.491825267434 270.5277047532857 279.53700000000003 271.449 L 279.53700000000003 282.949 C 279.53699603028264 284.3273721188721 280.6526318508396 285.4456919069204 282.031 285.449 Z" stroke-linecap="round" />
</g>
		<g transform="matrix(11.11 0 0 11.11 212.55 0)" id="Path_15"  >
<path style="stroke: none; stroke-width: 1; stroke-dasharray: none; stroke-linecap: butt; stroke-dashoffset: 0; stroke-linejoin: miter; stroke-miterlimit: 4; fill: rgb(0,0,0); fill-rule: nonzero; opacity: 1;" vector-effect="non-scaling-stroke"  transform=" translate(-315.13, -287)" d="M 329.5 277.74 L 327.068 277.74 L 327.068 274.515 L 329.5 274.515 C 330.880711874577 274.515 332 273.395711874577 332 272.015 C 332 270.634288125423 330.880711874577 269.515 329.5 269.515 L 327.068 269.515 L 327.068 258.876 C 327.06304094023164 254.77734159970078 323.7416584002992 251.4559590597683 319.643 251.45099999999996 L 305.684 251.45099999999996 C 301.58556965882184 251.45650865039212 298.26450865039214 254.77756965882176 298.259 258.876 L 298.259 320.053 C 298.259 321.433711874577 299.378288125423 322.553 300.759 322.553 L 324.577 322.553 C 325.957711874577 322.553 327.077 321.433711874577 327.077 320.053 L 327.077 282.734 L 329.5 282.734 C 330.8315171836167 282.6687104710553 331.8775622607197 281.5701169239254 331.8775622607197 280.23699999999997 C 331.8775622607197 278.9038830760746 330.8315171836167 277.8052895289447 329.5 277.74 Z M 322.075 277.74 L 303.253 277.74 L 303.253 274.515 L 322.078 274.515 Z M 305.681 256.44 L 319.643 256.44 C 320.9854712402168 256.44165295230783 322.07334704769215 257.5295287597832 322.075 258.872 L 322.075 269.52 L 303.25 269.52 L 303.25 258.876 C 303.2516548181528 257.53274868413826 304.3407477776679 256.44455062434344 305.684 256.444 Z M 322.075 317.552 L 303.253 317.552 L 303.253 282.734 L 322.078 282.734 Z" stroke-linecap="round" />
</g>
</g>
</g>
</svg>