<?xml version="1.0" encoding="iso-8859-1"?>
<!-- Uploaded to: SVG Repo, www.svgrepo.com, Generator: SVG Repo Mixer Tools -->
<svg fill="#000000" height="800px" width="800px" version="1.1" id="Layer_1" xmlns="http://www.w3.org/2000/svg" xmlns:xlink="http://www.w3.org/1999/xlink" 
	 viewBox="0 0 512 512" xml:space="preserve">
<g>
	<g>
		<path d="M479.131,73.814L408.305,2.987c-3.983-3.983-10.441-3.983-14.425,0l-91.17,91.17c-3.983,3.983-3.983,10.441,0,14.425
			l49.8,49.8l-22.993,22.993c-14.369,14.369-30.483,26.965-47.895,37.44l-8.418,5.064c-18.833,11.33-36.262,24.954-51.803,40.495
			L31.647,454.13c-13.221,13.221-13.221,34.732,0,47.954c6.61,6.61,15.294,9.916,23.977,9.916c8.683,0,17.367-3.306,23.977-9.916
			L269.355,312.33c14.368-14.369,30.482-26.965,47.895-37.44l8.418-5.064c18.834-11.331,36.263-24.956,51.803-40.495L479.131,127.67
			C493.98,112.822,493.98,88.662,479.131,73.814z M324.347,101.37l76.746-76.746l42.588,42.588l-7.426,7.426l-27.196-27.196
			c-3.983-3.983-10.441-3.983-14.425,0c-3.983,3.983-3.983,10.441,0,14.425l27.196,27.196l-8.933,8.933L385.701,70.8
			c-3.983-3.983-10.441-3.983-14.425,0c-3.983,3.983-3.983,10.441,0,14.425l27.196,27.196l-8.933,8.933l-27.196-27.196
			c-3.983-3.983-10.441-3.983-14.425,0c-3.983,3.983-3.983,10.441,0,14.425l27.196,27.196l-8.18,8.18L324.347,101.37z
			 M464.707,113.245L363.047,214.905c-14.366,14.367-30.48,26.963-47.894,37.44l-8.418,5.064
			c-18.833,11.33-36.262,24.954-51.804,40.495L65.177,487.659c-5.267,5.268-13.838,5.268-19.105,0
			c-5.268-5.267-5.268-13.838,0-19.105L235.826,278.8c14.369-14.368,30.483-26.965,47.895-37.44l8.418-5.064
			c18.833-11.33,36.262-24.954,51.803-40.495L458.106,81.637l6.601,6.601C471.601,95.133,471.601,106.35,464.707,113.245z"/>
	</g>
</g>
<g>
	<g>
		<path d="M462.555,96.418c-3.983-3.983-10.441-3.983-14.424,0l-31.646,31.646c-3.983,3.983-3.983,10.441,0,14.425
			c1.992,1.991,4.602,2.987,7.212,2.987c2.61,0,5.221-0.997,7.212-2.987l31.646-31.646
			C466.538,106.86,466.538,100.402,462.555,96.418z"/>
	</g>
</g>
<g>
	<g>
		<path d="M409.059,149.914c-3.983-3.983-10.441-3.983-14.424,0l-2.26,2.26c-3.983,3.983-3.983,10.441,0,14.425
			c1.992,1.992,4.602,2.987,7.212,2.987c2.61,0,5.221-0.995,7.212-2.987l2.26-2.26C413.042,160.356,413.042,153.898,409.059,149.914
			z"/>
	</g>
</g>
</svg>