<?xml version="1.0" encoding="UTF-8" standalone="no" ?>
<!DOCTYPE svg PUBLIC "-//W3C//DTD SVG 1.1//EN" "http://www.w3.org/Graphics/SVG/1.1/DTD/svg11.dtd">
<svg xmlns="http://www.w3.org/2000/svg" xmlns:xlink="http://www.w3.org/1999/xlink" version="1.1" width="1080" height="1080" viewBox="0 0 1080 1080" xml:space="preserve">
<desc>Created with Fabric.js 5.2.4</desc>
<defs>
</defs>
<rect x="0" y="0" width="100%" height="100%" fill="transparent"></rect>
<g transform="matrix(1 0 0 1 540 540)" id="f58223a6-2293-4e60-bd79-8e0a1a62bc5d"  >
<rect style="stroke: none; stroke-width: 1; stroke-dasharray: none; stroke-linecap: butt; stroke-dashoffset: 0; stroke-linejoin: miter; stroke-miterlimit: 4; fill: rgb(255,255,255); fill-rule: nonzero; opacity: 1; visibility: hidden;" vector-effect="non-scaling-stroke"  x="-540" y="-540" rx="0" ry="0" width="1080" height="1080" />
</g>
<g transform="matrix(1 0 0 1 540 540)" id="cf07a138-354b-497f-b90b-80a04cb5d77b"  >
</g>
<g transform="matrix(1 0 0 1 540 540)"  >
<g style="" vector-effect="non-scaling-stroke"   >
		<g transform="matrix(11.11 0 0 11.11 0 0)" id="Path_7"  >
<path style="stroke: none; stroke-width: 1; stroke-dasharray: none; stroke-linecap: butt; stroke-dashoffset: 0; stroke-linejoin: miter; stroke-miterlimit: 4; fill: rgb(0,0,0); fill-rule: nonzero; opacity: 1;" vector-effect="non-scaling-stroke"  transform=" translate(-152, -287)" d="M 186.832 255.591 C 186.10466411398065 255.13042063149487 185.19207797084164 255.0745634151241 184.414 255.443 L 163.162 265.5 L 141.91 255.443 C 141.2395850554483 255.0802721543789 140.4314149445517 255.0802721543789 139.761 255.443 L 117.43599999999999 266.011 C 116.55882596104425 266.4259974031515 115.99960713476582 267.3096098800496 116 268.28 L 116 316.31899999999996 C 115.99970629133306 317.17966681033465 116.44040725438647 317.980469067871 117.16765254771859 318.4407534669144 C 117.8948978410507 318.9010378659578 118.80726458262689 318.9566123509053 119.585 318.58799999999997 L 140.837 308.52899999999994 L 162.089 318.58799999999997 C 162.76901581777724 318.91058609379 163.55798418222275 318.91058609379 164.238 318.58799999999997 L 186.564 308.02 C 187.4410162320507 307.60534811699694 188.0002510667695 306.72209978472523 188 305.752 L 188 257.712 C 187.99958286607327 256.8516299730333 187.5588681855474 256.0513253177291 186.832 255.591 Z M 138.325 304.16200000000003 L 121.02499999999999 312.35200000000003 L 121.02499999999999 269.869 L 138.325 261.67900000000003 Z M 143.34599999999998 261.67900000000003 L 160.65099999999998 269.869 L 160.65099999999998 312.35200000000003 L 143.34599999999998 304.16200000000003 Z M 182.97699999999998 304.16200000000003 L 165.67699999999996 312.35200000000003 L 165.67699999999996 269.869 L 182.97699999999998 261.67900000000003 Z" stroke-linecap="round" />
</g>
		<g transform="matrix(11.11 0 0 11.11 267.41 -133.19)" id="Path_8"  >
<path style="stroke: none; stroke-width: 1; stroke-dasharray: none; stroke-linecap: butt; stroke-dashoffset: 0; stroke-linejoin: miter; stroke-miterlimit: 4; fill: rgb(0,0,0); fill-rule: nonzero; opacity: 1;" vector-effect="non-scaling-stroke"  transform=" translate(-176.07, -275.01)" d="M 176.068 277.508 C 175.05247338066494 277.50665618011396 174.1374847700679 276.8944620087608 173.74877743448008 275.95627080879666 C 173.3600700988922 275.0180796088325 173.57398983183867 273.9381609967061 174.29100000000003 273.219 C 175.29187565919307 272.28478943731886 176.845124340807 272.28478943731886 177.84600000000003 273.219 C 178.5611023578304 273.9389908675468 178.7736786578795 275.01809261841987 178.38507472089256 275.9555067273833 C 177.99647078390564 276.89292083634666 177.0827659633771 277.5051240485424 176.06800000000004 277.508 Z" stroke-linecap="round" />
</g>
		<g transform="matrix(11.11 0 0 11.11 1.81 9.22)" id="Path_9"  >
<path style="stroke: none; stroke-width: 1; stroke-dasharray: none; stroke-linecap: butt; stroke-dashoffset: 0; stroke-linejoin: miter; stroke-miterlimit: 4; fill: rgb(0,0,0); fill-rule: nonzero; opacity: 1;" vector-effect="non-scaling-stroke"  transform=" translate(-152.16, -287.83)" d="M 130.621 295.511 C 130.33826252849644 294.9090362788754 130.30650603470093 294.219347210628 130.53273003061082 293.59394853536793 C 130.7589540265207 292.96854986010794 131.2245877696503 292.4587805956192 131.827 292.177 L 131.827 292.177 C 132.42802537510005 291.89248452880054 133.11763651603073 291.8591376991053 133.74330955479024 292.0843349536078 C 134.36898259354973 292.30953220811034 134.8791585841478 292.7747160377559 135.161 293.377 L 135.161 293.377 C 135.7532474067304 294.6320708592221 135.2160092847417 296.12962212426567 133.961 296.72200000000004 L 133.961 296.72200000000004 C 133.62453330173642 296.87850667630335 133.2580839299965 296.9600536035341 132.887 296.961 L 132.887 296.961 C 131.91484305923285 296.9564551200513 131.03243976953112 296.3918104730665 130.621 295.511 Z M 146.03300000000002 289.46500000000003 C 145.85084925264763 288.8244490967585 145.93179284560924 288.1376965034588 146.25787929784457 287.557048606646 C 146.58396575007987 286.9764007098332 147.12824209653434 286.54985147664246 147.77 286.372 L 147.77 286.372 C 148.41077179883808 286.1918138840093 149.0968897624971 286.2737393841153 149.677221756362 286.5997306592727 C 150.2575537502269 286.9257219344302 150.68449407277907 287.46903732037305 150.864 288.11 L 150.864 288.11 C 151.04408067284578 288.7520008086884 150.96088375448528 289.4392981902395 150.63282128520999 290.019788589249 C 150.30475881593466 290.6002789882584 149.75888305592937 291.02609476127566 149.116 291.20300000000003 L 149.116 291.20300000000003 C 148.89806385024025 291.27039240286956 148.67111545248446 291.3041143044677 148.443 291.30300000000005 L 148.443 291.30300000000005 C 147.31833338623534 291.3002673026359 146.3331180145916 290.54888728061053 146.033 289.465 Z M 153.626 287.51700000000005 C 153.62147755594998 286.85257514201425 153.88163668828432 286.2136815138354 154.34902138084922 285.74141845836135 C 154.81640607341413 285.2691554028873 155.45256400141855 285.0023765939433 156.117 285 L 156.117 285 C 157.5028042795765 284.99001678129224 158.63489882282732 286.10421259658654 158.647 287.49 L 158.647 287.49 C 158.64873605692634 288.87664950395043 157.5335594336479 290.0061003880068 156.147 290.022 L 156.137 290.022 C 155.4711875284607 290.0249309478321 154.83171171737519 289.76214603771797 154.36034381540915 289.2919044628773 C 153.88897591344312 288.82166288803666 153.62466191107887 288.1828175780426 153.626 287.517 Z M 169.58 282.91100000000006 C 169.12858431874872 282.41886562879716 168.89180411875594 281.7671831685639 168.92201722104502 281.1000553509391 C 168.95223032333408 280.4329275333142 169.24694762049432 279.8053157051602 169.741 279.35600000000005 L 169.741 279.35600000000005 C 170.23246178720487 278.9068743347935 170.88227871177824 278.67149502380556 171.5473626864292 278.7016920119383 C 172.21244666108018 278.7318890000711 172.83825994734346 279.0251860955894 173.287 279.51700000000005 L 173.287 279.51700000000005 C 174.22094647356576 280.543955137441 174.14897483687193 282.132695490297 173.126 283.071 L 173.126 283.071 C 172.65912063462383 283.4907703330754 172.05383882162377 283.72362580701775 171.42600000000002 283.725 L 171.42600000000002 283.725 C 170.72309102543016 283.7276518224381 170.05210140011872 283.4317766572141 169.58 282.911 Z" stroke-linecap="round" />
</g>
		<g transform="matrix(11.11 0 0 11.11 -289.7 122.08)" id="Path_10"  >
<path style="stroke: none; stroke-width: 1; stroke-dasharray: none; stroke-linecap: butt; stroke-dashoffset: 0; stroke-linejoin: miter; stroke-miterlimit: 4; fill: rgb(0,0,0); fill-rule: nonzero; opacity: 1;" vector-effect="non-scaling-stroke"  transform=" translate(-125.93, -297.99)" d="M 125.931 300.482 C 125.2649829841225 300.48010130911604 124.6264013830354 300.2164798832454 124.15299999999999 299.74800000000005 C 123.17431053800738 298.76546467752627 123.17431053800738 297.17653532247385 124.15299999999999 296.1940000000001 C 125.15015300162409 295.26011853530485 126.7008469983759 295.26011853530485 127.698 296.1940000000001 C 128.41608863326005 296.9109042535721 128.6321271093243 297.98953837215333 128.24552965865135 298.9276990221169 C 127.8589322079784 299.8658596720805 126.94568951443696 300.47913935346645 125.931 300.4820000000001 Z" stroke-linecap="round" />
</g>
</g>
</g>
</svg>