<?xml version="1.0" encoding="UTF-8" standalone="no" ?>
<!DOCTYPE svg PUBLIC "-//W3C//DTD SVG 1.1//EN" "http://www.w3.org/Graphics/SVG/1.1/DTD/svg11.dtd">
<svg xmlns="http://www.w3.org/2000/svg" xmlns:xlink="http://www.w3.org/1999/xlink" version="1.1" width="1080" height="1080" viewBox="0 0 1080 1080" xml:space="preserve">
<desc>Created with Fabric.js 5.2.4</desc>
<defs>
</defs>
<rect x="0" y="0" width="100%" height="100%" fill="transparent"></rect>
<g transform="matrix(1 0 0 1 540 540)" id="e73ad273-6a6b-49af-9196-7a67270a2b60"  >
<rect style="stroke: none; stroke-width: 1; stroke-dasharray: none; stroke-linecap: butt; stroke-dashoffset: 0; stroke-linejoin: miter; stroke-miterlimit: 4; fill: rgb(255,255,255); fill-rule: nonzero; opacity: 1; visibility: hidden;" vector-effect="non-scaling-stroke"  x="-540" y="-540" rx="0" ry="0" width="1080" height="1080" />
</g>
<g transform="matrix(1 0 0 1 540 540)" id="eacb957a-d696-4a69-99a1-ccf14ad31bbe"  >
</g>
<g transform="matrix(49.98 0 0 49.98 540 540)" id="e1093c37-c848-4bf6-ad92-9f68fbcf7416"  >
<path style="stroke: rgb(0,0,0); stroke-width: 0; stroke-dasharray: none; stroke-linecap: butt; stroke-dashoffset: 0; stroke-linejoin: miter; stroke-miterlimit: 4; fill: rgb(255,255,255); fill-rule: nonzero; opacity: 1;" vector-effect="non-scaling-stroke"  transform=" translate(-12.04, -12.04)" d="M 20.7457 3.32851 C 20.3552 2.93798 19.722 2.93798 19.3315 3.32851 L 12.0371 10.6229 L 4.74275 3.32851 C 4.35223 2.93798 3.71906 2.93798 3.32854 3.32851 C 2.93801 3.71903 2.93801 4.3522 3.32854 4.74272 L 10.6229 12.0371 L 3.32856 19.3314 C 2.93803 19.722 2.93803 20.3551 3.32856 20.7457 C 3.71908 21.1362 4.35225 21.1362 4.74277 20.7457 L 12.0371 13.4513 L 19.3315 20.7457 C 19.722 21.1362 20.3552 21.1362 20.7457 20.7457 C 21.1362 20.3551 21.1362 19.722 20.7457 19.3315 L 13.4513 12.0371 L 20.7457 4.74272 C 21.1362 4.3522 21.1362 3.71903 20.7457 3.32851 Z" stroke-linecap="round" />
</g>
</svg>