<?xml version="1.0" encoding="UTF-8" standalone="no" ?>
<!DOCTYPE svg PUBLIC "-//W3C//DTD SVG 1.1//EN" "http://www.w3.org/Graphics/SVG/1.1/DTD/svg11.dtd">
<svg xmlns="http://www.w3.org/2000/svg" xmlns:xlink="http://www.w3.org/1999/xlink" version="1.1" width="1080" height="1080" viewBox="0 0 1080 1080" xml:space="preserve">
<desc>Created with Fabric.js 5.2.4</desc>
<defs>
</defs>
<g transform="matrix(1 0 0 1 540 540)" id="a9a0f159-8606-4b3e-8c5b-f637665ac517"  >
<rect style="stroke: none; stroke-width: 1; stroke-dasharray: none; stroke-linecap: butt; stroke-dashoffset: 0; stroke-linejoin: miter; stroke-miterlimit: 4; fill: rgb(255,255,255); fill-rule: nonzero; opacity: 1; visibility: hidden;" vector-effect="non-scaling-stroke"  x="-540" y="-540" rx="0" ry="0" width="1080" height="1080" />
</g>
<g transform="matrix(1 0 0 1 540 540)" id="f86d5013-d9c1-4f84-9b8c-afc54adfe97d"  >
</g>
<g transform="matrix(1 0 0 1 540 540)"  >
<g style="" vector-effect="non-scaling-stroke"   >
		<g transform="matrix(33.33 0 0 33.33 0 0)"  >
<path style="stroke: none; stroke-width: 1; stroke-dasharray: none; stroke-linecap: butt; stroke-dashoffset: 0; stroke-linejoin: miter; stroke-miterlimit: 4; fill: rgb(0,0,0); fill-rule: evenodd; opacity: 1;" vector-effect="non-scaling-stroke"  transform=" translate(-12, -12)" d="M 12 8.25 C 9.92893 8.25 8.25 9.92893 8.25 12 C 8.25 14.0711 9.92893 15.75 12 15.75 C 14.0711 15.75 15.75 14.0711 15.75 12 C 15.75 9.92893 14.0711 8.25 12 8.25 Z M 9.75 12 C 9.75 10.7574 10.7574 9.75 12 9.75 C 13.2426 9.75 14.25 10.7574 14.25 12 C 14.25 13.2426 13.2426 14.25 12 14.25 C 10.7574 14.25 9.75 13.2426 9.75 12 Z" stroke-linecap="round" />
</g>
		<g transform="matrix(33.33 0 0 33.33 0 0)"  >
<path style="stroke: none; stroke-width: 1; stroke-dasharray: none; stroke-linecap: butt; stroke-dashoffset: 0; stroke-linejoin: miter; stroke-miterlimit: 4; fill: rgb(0,0,0); fill-rule: evenodd; opacity: 1;" vector-effect="non-scaling-stroke"  transform=" translate(-12, -12)" d="M 12 3.25 C 7.48587 3.25 4.44529 5.9542 2.68057 8.24686 L 2.64874 8.2882 C 2.24964 8.80653 1.88206 9.28392 1.63269 9.8484 C 1.36564 10.4529 1.25 11.1117 1.25 12 C 1.25 12.8883 1.36564 13.5471 1.63269 14.1516 C 1.88206 14.7161 2.24964 15.1935 2.64875 15.7118 L 2.68057 15.7531 C 4.44529 18.0458 7.48587 20.75 12 20.75 C 16.5141 20.75 19.5547 18.0458 21.3194 15.7531 L 21.3512 15.7118 C 21.7504 15.1935 22.1179 14.7161 22.3673 14.1516 C 22.6344 13.5471 22.75 12.8883 22.75 12 C 22.75 11.1117 22.6344 10.4529 22.3673 9.8484 C 22.1179 9.28391 21.7504 8.80652 21.3512 8.28818 L 21.3194 8.24686 C 19.5547 5.9542 16.5141 3.25 12 3.25 Z M 3.86922 9.1618 C 5.49864 7.04492 8.15036 4.75 12 4.75 C 15.8496 4.75 18.5014 7.04492 20.1308 9.1618 C 20.5694 9.73159 20.8263 10.0721 20.9952 10.4545 C 21.1532 10.812 21.25 11.2489 21.25 12 C 21.25 12.7511 21.1532 13.188 20.9952 13.5455 C 20.8263 13.9279 20.5694 14.2684 20.1308 14.8382 C 18.5014 16.9551 15.8496 19.25 12 19.25 C 8.15036 19.25 5.49864 16.9551 3.86922 14.8382 C 3.43064 14.2684 3.17374 13.9279 3.00476 13.5455 C 2.84684 13.188 2.75 12.7511 2.75 12 C 2.75 11.2489 2.84684 10.812 3.00476 10.4545 C 3.17374 10.0721 3.43063 9.73159 3.86922 9.1618 Z" stroke-linecap="round" />
</g>
</g>
</g>
</svg>